<svg width="700" height="700" viewBox="0 0 700 700" fill="none" xmlns="http://www.w3.org/2000/svg">
<g clip-path="url(#clip0_495_15)">
<path d="M330.655 373.335C322.597 378.375 314.82 383.834 306.552 388.314C243.565 422.542 178.125 422.612 112.054 399.793C90.6144 392.374 69.7353 382.154 50.3975 370.185C34.0025 360.036 19.5692 346.316 5.69652 332.737C1.4226 328.537 -1.23984 318.598 0.581827 312.928C6.46722 294.169 12.2125 274.5 22.5119 258.051C84.1685 159.917 164.322 79.8409 263.463 19.4342C278.387 10.3347 296.183 5.36499 313.209 0.535255C319.094 -1.14465 328.553 1.30521 333.247 5.43499C398.687 62.5519 438.483 184.975 402.05 277.16C394.693 295.709 384.254 312.998 376.687 328.117C391.961 320.488 409.407 309.498 428.324 302.639C489.63 280.31 550.376 285.98 609.721 310.618C640.128 323.218 669.205 338.337 692.116 363.045C698.632 370.045 701.014 377.465 699.613 386.564C696.11 409.383 685.18 429.122 673.129 448.231C632.071 513.397 579.523 568.414 521.44 618.532C489.771 645.9 456.7 671.729 418.095 688.808C374.795 707.987 368.559 703.577 342.776 667.319C305.291 614.682 286.094 555.325 289.807 489.739C292.259 447.251 306.132 408.893 330.585 373.405L330.655 373.335ZM298.005 506.818C298.775 555.535 320.285 606.772 361.483 650.03C366.037 654.86 369.961 656.329 376.056 652.9C390.139 644.85 405.063 638.13 418.655 629.311C483.395 586.963 538.535 534.046 588.071 474.969C613.504 444.661 636.695 412.883 653.511 376.765C656.734 369.905 655.963 365.775 650.498 360.596C614.345 326.647 572.236 305.299 522.701 299.279C401.279 284.58 298.425 374.525 298.005 506.818ZM354.687 67.9416C285.603 190.295 190.316 285.56 68.1938 354.086C134.545 416.103 264.304 434.162 349.782 348.696C431.827 266.591 419.426 139.128 354.687 67.9416Z" fill="white"/>
<path d="M134.054 381.314C201.526 404.693 264.584 399.723 322.527 357.306C379.63 315.448 401.209 243.772 394.553 199.744C386.636 207.304 378.859 215.424 370.381 222.703C344.598 244.752 313.909 258.261 283.081 271.21C245.457 287.03 208.182 303.269 176.163 329.377C158.857 343.517 143.303 358.986 134.054 381.314Z" fill="white"/>
<path d="M362.324 361.365C370.731 367.735 376.337 372.845 382.712 376.765C438.694 411.273 495.025 411.343 552.058 378.934C569.223 369.205 587.23 360.805 604.956 351.986C613.714 347.646 620.791 349.536 628.218 356.256C647.345 373.615 645.804 367.315 634.243 388.804C611.963 430.312 582.045 466.29 550.096 500.588C507.917 545.875 462.375 587.453 410.108 621.051C399.528 627.841 388.177 633.44 377.247 639.6C373.114 641.98 369.821 642.19 366.037 638.06C348.941 619.231 333.737 598.792 326.171 574.574C323.158 564.844 326.171 552.245 329.183 541.746C337.311 513.887 346.069 486.169 356.158 458.94C373.954 401.543 361.833 366.965 362.324 361.295V361.365Z" fill="white"/>
<path d="M134.054 381.314C143.303 358.986 158.857 343.447 176.163 329.377C208.182 303.269 245.457 287.03 283.081 271.21C313.909 258.261 344.598 244.752 370.381 222.703C378.859 215.424 386.636 207.304 394.553 199.744C401.209 243.702 379.63 315.448 322.527 357.306C264.584 399.723 201.596 404.693 134.054 381.314Z" fill="white"/>
</g>
<defs>
<clipPath id="clip0_495_15">
<rect width="700" height="700" fill="white"/>
</clipPath>
</defs>
</svg>
